<svg width="17" height="9" viewBox="0 0 17 9" fill="none" xmlns="http://www.w3.org/2000/svg">
<path d="M7.54922 7.86236L0.261622 1.74057C0.0929324 1.59898 0 1.40997 0 1.20843C0 1.0069 0.0929324 0.817886 0.261622 0.676297L0.79818 0.22547C1.14781 -0.0678868 1.71605 -0.0678868 2.06515 0.22547L8.18484 5.36609L14.3113 0.219766C14.48 0.0781762 14.7049 0 14.9447 0C15.1847 0 15.4096 0.0781762 15.5784 0.219766L16.1148 0.670593C16.2835 0.812294 16.3765 1.00119 16.3765 1.20273C16.3765 1.40426 16.2835 1.59327 16.1148 1.73486L8.82059 7.86236C8.65136 8.00428 8.42542 8.08223 8.18524 8.08179C7.94412 8.08223 7.71831 8.00428 7.54922 7.86236Z" fill="#F3F3F3"/>
</svg>
