<svg width="17" height="17" viewBox="0 0 17 17" fill="none" xmlns="http://www.w3.org/2000/svg">
<path d="M14.511 2.48949C11.1915 -0.829646 5.80937 -0.830015 2.48949 2.48949C-0.830015 5.809 -0.829646 11.1911 2.48949 14.511C5.809 17.8297 11.1911 17.8301 14.511 14.511C17.8301 11.1911 17.8297 5.80937 14.511 2.48949ZM9.60858 12.196C9.60858 12.8083 9.11225 13.3047 8.49986 13.3047C7.88748 13.3047 7.39114 12.8083 7.39114 12.196V7.76108C7.39114 7.1487 7.88748 6.65236 8.49986 6.65236C9.11225 6.65236 9.60858 7.1487 9.60858 7.76108V12.196ZM8.48027 5.86591C7.84165 5.86591 7.4159 5.41355 7.42921 4.85513C7.4159 4.26973 7.84165 3.83104 8.49321 3.83104C9.14514 3.83104 9.55758 4.27009 9.57126 4.85513C9.57089 5.41355 9.14551 5.86591 8.48027 5.86591Z" fill="#229AA2"/>
</svg>
