<svg width="13" height="13" viewBox="0 0 13 13" fill="none" xmlns="http://www.w3.org/2000/svg">
<path d="M9.48102 0H3.51898C1.57858 0 0 1.57858 0 3.51898V9.48112C0 11.4214 1.57858 13 3.51898 13H9.48112C11.4214 13 13 11.4214 13 9.48112V3.51898C13 1.57858 11.4214 0 9.48102 0V0ZM6.5 10.0546C4.53996 10.0546 2.94541 8.46004 2.94541 6.5C2.94541 4.53996 4.53996 2.94541 6.5 2.94541C8.46004 2.94541 10.0546 4.53996 10.0546 6.5C10.0546 8.46004 8.46004 10.0546 6.5 10.0546ZM10.1396 3.7837C9.56036 3.7837 9.08925 3.31258 9.08925 2.73336C9.08925 2.15414 9.56036 1.68292 10.1396 1.68292C10.7188 1.68292 11.19 2.15414 11.19 2.73336C11.19 3.31258 10.7188 3.7837 10.1396 3.7837Z" fill="#229AA2"/>
</svg>
