<svg width="21" height="22" viewBox="0 0 21 22" fill="none" xmlns="http://www.w3.org/2000/svg">
<mask id="path-1-inside-1_138_2467" fill="white">
<path d="M15.3138 22C14.6689 22 14.0296 21.8745 13.4044 21.6243C10.65 20.5224 8.09345 18.7276 6.01087 16.4341C3.92829 14.1406 2.29867 11.3249 1.29815 8.29151C0.976638 7.31668 0.881756 6.31039 1.01624 5.30049C1.14221 4.35453 1.47493 3.4362 1.97844 2.64475C2.48419 1.84981 3.15843 1.18864 3.92826 0.732716C4.74919 0.246545 5.64523 0 6.59156 0C6.88588 0 7.14025 0.226479 7.20193 0.543404L8.18174 5.57909C8.2261 5.80712 8.16246 6.04438 8.01277 6.20929L6.33855 8.05309C7.91792 11.5113 10.4807 14.3337 13.6208 16.0731L15.295 14.2293C15.4447 14.0644 15.6602 13.9944 15.8672 14.0432L20.4396 15.1223C20.7274 15.1902 20.933 15.4704 20.933 15.7945C20.933 16.8367 20.7092 17.8236 20.2677 18.7277C19.8537 19.5755 19.2533 20.3181 18.5315 20.875C17.8129 21.4296 16.9791 21.796 16.1201 21.9347C15.851 21.9783 15.5818 22 15.3138 22ZM6.0928 1.40502C4.84454 1.55678 3.73662 2.27734 3.00089 3.43379C2.17355 4.73419 1.98063 6.33363 2.47158 7.8221C4.39514 13.6538 8.53536 18.2135 13.8306 20.332C15.1821 20.8727 16.6344 20.6602 17.8152 19.749C18.8653 18.9388 19.5195 17.7186 19.6573 16.3439L15.9377 15.4661L14.1892 17.3917C14.0032 17.5966 13.7205 17.651 13.4824 17.5278C9.76864 15.6063 6.76252 12.2956 5.0178 8.20558C4.90595 7.94335 4.95534 7.63201 5.1414 7.42714L6.88986 5.50154L6.0928 1.40502Z"/>
</mask>
<path d="M15.3138 22V33.5H15.3156L15.3138 22ZM13.4044 21.6243L17.6764 10.9472L17.676 10.9471L13.4044 21.6243ZM1.29815 8.29151L-9.62317 11.8935L-9.62311 11.8937L1.29815 8.29151ZM1.01624 5.30049L-10.3831 3.7824L-10.3831 3.78251L1.01624 5.30049ZM1.97844 2.64475L-7.72435 -3.52823L-7.72441 -3.52815L1.97844 2.64475ZM3.92826 0.732716L-1.93171 -9.16227L-1.93189 -9.16217L3.92826 0.732716ZM7.20193 0.543404L18.4902 -1.65298L18.4901 -1.65356L7.20193 0.543404ZM8.18174 5.57909L19.4701 3.3831L19.47 3.38271L8.18174 5.57909ZM8.01277 6.20929L16.5266 13.9401L16.5277 13.9389L8.01277 6.20929ZM6.33855 8.05309L-2.17528 0.322325L-7.27145 5.9347L-4.12216 12.8305L6.33855 8.05309ZM13.6208 16.0731L8.0484 26.1329L16.0137 30.5451L22.1348 23.8037L13.6208 16.0731ZM15.295 14.2293L6.78204 6.49752L6.78095 6.49872L15.295 14.2293ZM15.8672 14.0432L18.5086 2.85066L18.5042 2.84962L15.8672 14.0432ZM20.4396 15.1223L23.0813 3.92981L23.081 3.92973L20.4396 15.1223ZM20.2677 18.7277L9.93388 13.6816L9.93378 13.6818L20.2677 18.7277ZM18.5315 20.875L11.506 11.7705L11.5059 11.7707L18.5315 20.875ZM16.1201 21.9347L14.2864 10.5819L14.2843 10.5822L16.1201 21.9347ZM6.0928 1.40502L17.3811 -0.791346L15.3358 -11.3034L4.70489 -10.0109L6.0928 1.40502ZM3.00089 3.43379L12.7036 9.60685L12.7037 9.60668L3.00089 3.43379ZM2.47158 7.8221L-8.44967 11.4244L-8.44966 11.4244L2.47158 7.8221ZM13.8306 20.332L18.1023 9.65477L18.1022 9.65474L13.8306 20.332ZM17.8152 19.749L10.7898 10.6445L10.7895 10.6447L17.8152 19.749ZM19.6573 16.3439L31.1 17.4908L32.1049 7.46552L22.2987 5.15132L19.6573 16.3439ZM15.9377 15.4661L18.5791 4.2735L11.981 2.71641L7.42376 7.73539L15.9377 15.4661ZM14.1892 17.3917L22.7031 25.1223V25.1223L14.1892 17.3917ZM13.4824 17.5278L18.7689 7.3149L18.767 7.31392L13.4824 17.5278ZM5.0178 8.20558L-5.56008 12.7176L-5.55998 12.7178L5.0178 8.20558ZM5.1414 7.42714L13.6545 15.1587L13.6553 15.1578L5.1414 7.42714ZM6.88986 5.50154L15.4038 13.2322L19.2792 8.9641L18.1782 3.30517L6.88986 5.50154ZM15.3138 10.5C16.1924 10.5 16.9998 10.6765 17.6764 10.9472L9.1323 32.3013C11.0593 33.0724 13.1455 33.5 15.3138 33.5V10.5ZM17.676 10.9471C16.6131 10.5218 15.4884 9.7646 14.5247 8.70335L-2.50297 24.1648C0.698542 27.6907 4.68701 30.5229 9.1327 32.3015L17.676 10.9471ZM14.5247 8.70335C13.5588 7.63964 12.7315 6.24184 12.2194 4.68929L-9.62311 11.8937C-8.13416 16.408 -5.70226 20.6415 -2.50297 24.1648L14.5247 8.70335ZM12.2195 4.68949C12.4374 5.35008 12.5121 6.09369 12.4156 6.81848L-10.3831 3.78251C-10.7486 6.52709 -10.4841 9.28328 -9.62317 11.8935L12.2195 4.68949ZM12.4156 6.81858C12.3249 7.4993 12.0907 8.17407 11.6813 8.81764L-7.72441 -3.52815C-9.14088 -1.30167 -10.0405 1.20977 -10.3831 3.7824L12.4156 6.81858ZM11.6812 8.81773C11.2694 9.465 10.657 10.1132 9.7884 10.6276L-1.93189 -9.16217C-4.34009 -7.73593 -6.30107 -5.76537 -7.72435 -3.52823L11.6812 8.81773ZM9.78822 10.6277C8.85072 11.1829 7.72526 11.5 6.59156 11.5V-11.5C3.5652 -11.5 0.647666 -10.6898 -1.93171 -9.16227L9.78822 10.6277ZM6.59156 11.5C0.641546 11.5 -3.24451 7.06536 -4.08626 2.74037L18.4901 -1.65356C17.525 -6.6124 13.1302 -11.5 6.59156 -11.5V11.5ZM-4.08637 2.73979L-3.10657 7.77548L19.47 3.38271L18.4902 -1.65298L-4.08637 2.73979ZM-3.10665 7.77508C-3.72025 4.6209 -2.91038 1.13264 -0.502154 -1.52027L16.5277 13.9389C19.2353 10.9561 20.1724 6.99333 19.4701 3.3831L-3.10665 7.77508ZM-0.501064 -1.52147L-2.17528 0.322325L14.8524 15.7839L16.5266 13.9401L-0.501064 -1.52147ZM-4.12216 12.8305C-1.58483 18.3863 2.62402 23.1282 8.0484 26.1329L19.1932 6.01339C18.3373 5.53932 17.4207 4.63635 16.7993 3.2757L-4.12216 12.8305ZM22.1348 23.8037L23.809 21.9599L6.78095 6.49872L5.10678 8.34256L22.1348 23.8037ZM23.8079 21.9611C21.3073 24.7142 17.3203 26.2003 13.2302 25.2368L18.5042 2.84962C14.0001 1.78854 9.58206 3.41462 6.78204 6.49752L23.8079 21.9611ZM13.2258 25.2357L17.7982 26.3148L23.081 3.92973L18.5086 2.85066L13.2258 25.2357ZM17.7979 26.3147C12.2192 24.998 9.43301 20.0772 9.43301 15.7945H32.433C32.433 10.8635 29.2356 5.3824 23.0813 3.92981L17.7979 26.3147ZM9.43301 15.7945C9.43301 15.1524 9.58019 14.4059 9.93388 13.6816L30.6015 23.7737C31.8381 21.2412 32.433 18.521 32.433 15.7945H9.43301ZM9.93378 13.6818C10.2679 12.9975 10.7781 12.3322 11.506 11.7705L25.5571 29.9795C27.7286 28.3039 29.4395 26.1535 30.6016 23.7736L9.93378 13.6818ZM11.5059 11.7707C12.2358 11.2073 13.1717 10.7619 14.2864 10.5819L17.9538 33.2876C20.7865 32.8301 23.39 31.6518 25.5572 29.9794L11.5059 11.7707ZM14.2843 10.5822C14.6148 10.5288 14.9589 10.5001 15.3119 10.5L15.3156 33.5C16.2048 33.4999 17.0871 33.4277 17.9559 33.2873L14.2843 10.5822ZM4.70489 -10.0109C-0.241584 -9.40954 -4.27668 -6.55128 -6.70197 -2.7391L12.7037 9.60668C11.7499 11.106 9.93067 12.5231 7.48072 12.821L4.70489 -10.0109ZM-6.70186 -2.73927C-9.41708 1.52849 -10.0001 6.72392 -8.44967 11.4244L13.3928 4.21983C13.9613 5.94334 13.7642 7.93988 12.7036 9.60685L-6.70186 -2.73927ZM-8.44966 11.4244C-5.55541 20.199 0.846407 27.5236 9.559 31.0092L18.1022 9.65474C16.2243 8.90346 14.3457 7.10864 13.3928 4.21981L-8.44966 11.4244ZM9.55892 31.0092C14.8021 33.1068 20.5354 32.1759 24.8409 28.8534L10.7895 10.6447C12.7334 9.14459 15.5621 8.63851 18.1023 9.65477L9.55892 31.0092ZM24.8406 28.8536C28.549 25.9921 30.6667 21.8135 31.1 17.4908L8.21467 15.1969C8.37236 13.6237 9.18155 11.8854 10.7898 10.6445L24.8406 28.8536ZM22.2987 5.15132L18.5791 4.2735L13.2963 26.6586L17.016 27.5364L22.2987 5.15132ZM7.42376 7.73539L5.6753 9.661L22.7031 25.1223L24.4516 23.1967L7.42376 7.73539ZM5.6753 9.661C8.83361 6.18269 14.1668 4.9327 18.7689 7.3149L8.1959 27.7407C13.2742 30.3693 19.1727 29.0105 22.7031 25.1223L5.6753 9.661ZM18.767 7.31392C17.5839 6.70177 16.3636 5.49372 15.5956 3.69333L-5.55998 12.7178C-2.83856 19.0975 1.95341 24.5108 8.19779 27.7416L18.767 7.31392ZM15.5957 3.69356C17.1778 7.40256 16.6073 11.9074 13.6545 15.1587L-3.37171 -0.304411C-6.69662 3.3566 -7.36587 8.48414 -5.56008 12.7176L15.5957 3.69356ZM13.6553 15.1578L15.4038 13.2322L-1.62406 -2.22913L-3.37252 -0.303521L13.6553 15.1578ZM18.1782 3.30517L17.3811 -0.791346L-5.19551 3.60139L-4.39845 7.6979L18.1782 3.30517Z" fill="#229AA1" mask="url(#path-1-inside-1_138_2467)"/>
</svg>
