<svg width="18" height="11" viewBox="0 0 18 11" fill="none" xmlns="http://www.w3.org/2000/svg">
<path fill-rule="evenodd" clip-rule="evenodd" d="M9.02852 9.98263H10.0096C10.0096 9.98263 10.306 9.9501 10.4573 9.78699C10.5965 9.63725 10.5921 9.35605 10.5921 9.35605C10.5921 9.35605 10.5729 8.0396 11.1839 7.84575C11.7862 7.65479 12.5596 9.11807 13.3794 9.6807C13.9993 10.1065 14.4703 10.0132 14.4703 10.0132L16.6623 9.98263C16.6623 9.98263 17.8089 9.91199 17.2652 9.01045C17.2207 8.93669 16.9486 8.34353 15.6355 7.12469C14.2611 5.84902 14.4452 6.05535 16.1007 3.84872C17.109 2.50487 17.5121 1.68443 17.3862 1.33304C17.2661 0.998355 16.5246 1.08682 16.5246 1.08682L14.0565 1.10219C14.0565 1.10219 13.8736 1.07723 13.7379 1.15834C13.6053 1.23789 13.52 1.42328 13.52 1.42328C13.52 1.42328 13.1294 2.4632 12.6084 3.34759C11.5094 5.21374 11.07 5.31223 10.8904 5.19636C10.4726 4.9263 10.5769 4.11143 10.5769 3.53254C10.5769 1.72409 10.8512 0.970057 10.0428 0.774863C9.77453 0.710021 9.57711 0.667239 8.89103 0.660331C8.01043 0.651196 7.26509 0.663005 6.84306 0.869786C6.5623 1.00727 6.34571 1.31365 6.47762 1.33125C6.64073 1.35309 7.01017 1.43086 7.20604 1.69758C7.45894 2.04162 7.45003 2.81437 7.45003 2.81437C7.45003 2.81437 7.59531 4.94324 7.11067 5.20773C6.77799 5.38911 6.32165 5.01877 5.34189 3.32575C4.83986 2.45852 4.46084 1.49993 4.46084 1.49993C4.46084 1.49993 4.38776 1.32078 4.2574 1.22497C4.0992 1.10888 3.87816 1.07189 3.87816 1.07189L1.53293 1.08726C1.53293 1.08726 1.18087 1.09707 1.05163 1.25015C0.936652 1.38629 1.04249 1.66794 1.04249 1.66794C1.04249 1.66794 2.87857 5.96355 4.95752 8.12829C6.86378 10.113 9.02852 9.98263 9.02852 9.98263Z" fill="#229AA1"/>
</svg>
